<svg width="20" height="16" viewBox="0 0 20 16" fill="none" xmlns="http://www.w3.org/2000/svg">
<path fill-rule="evenodd" clip-rule="evenodd" d="M16.735 1.27499C17.655 1.09299 19.22 0.461993 20 -0.00100708C19.699 0.942993 18.514 2.13499 17.68 2.63499C18.497 2.53699 19.275 2.32099 20 1.99899C19.458 2.80899 18.773 3.51999 17.983 4.08999C17.986 4.15599 17.989 4.28299 17.992 4.41899C17.992 4.43249 17.994 4.44574 17.996 4.45899C17.998 4.47224 18 4.48549 18 4.49899C18 4.50799 17.9988 4.51674 17.9975 4.52549C17.9963 4.53424 17.995 4.54299 17.995 4.55199C17.998 4.73299 18 4.91299 18 4.99899C18 10.337 13.777 16 6.347 16C4.065 16 1.788 15.145 0 13.999H0.964C3.794 13.999 4.753 13.597 6.135 12.513C4.368 12.481 2.514 11.579 2 9.97399C2.246 10.02 3.166 10.139 3.426 10.139C3.795 10.139 4.551 10.117 4.926 9.89599C3.078 9.52499 1 8.19199 1 6.23399V6.18299C1.563 6.64699 2.178 6.79999 2.759 6.79999C3.119 6.79999 3.465 6.74199 3.779 6.66099C2.074 5.80799 0.979 4.43199 0.979 3.03099C0.979 2.28899 1.066 1.49899 1.265 0.998993C3.095 3.24299 5.647 4.99899 9 4.99899C8.99238 4.91036 8.99531 4.76755 8.99784 4.6446C8.99798 4.63777 8.99812 4.63101 8.99825 4.62432C8.9992 4.57747 9 4.53425 9 4.49899C9 2.01399 11.015 -0.00100708 13.5 -0.00100708C14.733 -0.00100708 15.847 0.495993 16.66 1.29799C16.6724 1.29466 16.6839 1.29087 16.6954 1.28706C16.7081 1.28287 16.7209 1.27866 16.735 1.27499Z" fill="#310A90"/>
</svg>
